<svg width="24" height="24" viewBox="0 0 24 24" fill="none" xmlns="http://www.w3.org/2000/svg">
<path d="M18.75 10.5L17.175 9.75C15.9 9.15 15 7.8 15 6.375V1.5H22.5V6.375C22.5 7.8 21.675 9.15 20.325 9.75L18.75 10.5ZM16.5 3V6.375C16.5 7.275 17.025 8.025 17.775 8.4L18.75 8.85L19.725 8.4C20.475 8.025 21 7.2 21 6.375V3H16.5Z" fill="#24E520"/>
<path d="M21 12V16.5H3V4.5H12V3H3C2.175 3 1.5 3.675 1.5 4.5V16.5C1.5 17.325 2.175 18 3 18H9V21H6V22.5H18V21H15V18H21C21.825 18 22.5 17.325 22.5 16.5V12H21ZM13.5 21H10.5V18H13.5V21Z" fill="#24E520"/>
</svg>
