<svg width="24" height="24" viewBox="0 0 24 24" fill="none" xmlns="http://www.w3.org/2000/svg">
<path d="M2 20V19C2 17.1435 2.7375 15.363 4.05025 14.0503C5.36301 12.7375 7.14348 12 9 12" stroke="#24E520" stroke-width="2" stroke-linecap="round" stroke-linejoin="round"/>
<path d="M15.804 12.314C15.9556 12.1476 16.1403 12.0147 16.3463 11.9237C16.5522 11.8328 16.7749 11.7858 17 11.7858C17.2251 11.7858 17.4478 11.8328 17.6537 11.9237C17.8597 12.0147 18.0444 12.1476 18.196 12.314C18.521 12.67 18.986 12.863 19.468 12.84C19.693 12.8295 19.9177 12.866 20.1278 12.9473C20.3378 13.0286 20.5286 13.1529 20.6879 13.3122C20.8471 13.4714 20.9714 13.6622 21.0527 13.8723C21.134 14.0823 21.1705 14.307 21.16 14.532C21.137 15.013 21.33 15.479 21.686 15.804C22.391 16.446 22.391 17.554 21.686 18.196C21.33 18.521 21.137 18.986 21.16 19.468C21.1705 19.693 21.134 19.9178 21.0527 20.1278C20.9714 20.3379 20.8471 20.5286 20.6879 20.6879C20.5286 20.8472 20.3378 20.9714 20.1278 21.0527C19.9177 21.134 19.693 21.1706 19.468 21.16C19.2303 21.1488 18.9931 21.1901 18.7733 21.281C18.5534 21.3719 18.3563 21.5102 18.196 21.686C18.0444 21.8525 17.8597 21.9854 17.6537 22.0764C17.4478 22.1673 17.2251 22.2143 17 22.2143C16.7749 22.2143 16.5522 22.1673 16.3463 22.0764C16.1403 21.9854 15.9556 21.8525 15.804 21.686C15.6437 21.5102 15.4466 21.3719 15.2267 21.281C15.0069 21.1901 14.7697 21.1488 14.532 21.16C14.307 21.1706 14.0823 21.134 13.8722 21.0527C13.6622 20.9714 13.4714 20.8472 13.3121 20.6879C13.1529 20.5286 13.0286 20.3379 12.9473 20.1278C12.866 19.9178 12.8295 19.693 12.84 19.468C12.8511 19.2303 12.8096 18.9931 12.7186 18.7732C12.6275 18.5533 12.489 18.3563 12.313 18.196C12.1466 18.0444 12.0136 17.8597 11.9227 17.6538C11.8317 17.4478 11.7847 17.2252 11.7847 17C11.7847 16.7749 11.8317 16.5522 11.9227 16.3463C12.0136 16.1404 12.1466 15.9557 12.313 15.804C12.67 15.479 12.863 15.014 12.84 14.532C12.8295 14.307 12.866 14.0823 12.9473 13.8723C13.0286 13.6622 13.1529 13.4714 13.3121 13.3122C13.4714 13.1529 13.6622 13.0286 13.8722 12.9473C14.0823 12.866 14.307 12.8295 14.532 12.84C15.013 12.863 15.479 12.67 15.804 12.313V12.314Z" stroke="#24E520" stroke-width="2"/>
<path d="M15.364 17L16.454 18.09L18.636 15.91M9 12C10.0609 12 11.0783 11.5786 11.8284 10.8284C12.5786 10.0783 13 9.06087 13 8C13 6.93913 12.5786 5.92172 11.8284 5.17157C11.0783 4.42143 10.0609 4 9 4C7.93913 4 6.92172 4.42143 6.17157 5.17157C5.42143 5.92172 5 6.93913 5 8C5 9.06087 5.42143 10.0783 6.17157 10.8284C6.92172 11.5786 7.93913 12 9 12Z" stroke="#24E520" stroke-width="2" stroke-linecap="round" stroke-linejoin="round"/>
</svg>
