<svg width="24" height="24" viewBox="0 0 24 24" fill="none" xmlns="http://www.w3.org/2000/svg">
<g clip-path="url(#clip0_2052_1023)">
<path d="M15.3047 3.4126C15.3047 1.56572 13.8 0.0610352 11.9531 0.0610352C10.1062 0.0610352 8.60156 1.56572 8.60156 3.4126C8.60156 4.93604 9.62344 6.22041 11.0156 6.62822V22.3126C11.0156 22.8282 11.4375 23.2501 11.9531 23.2501C12.4688 23.2501 12.8906 22.8282 12.8906 22.3126V6.62822C14.2828 6.22041 15.3047 4.93604 15.3047 3.4126ZM11.9531 4.88916C11.1375 4.88916 10.4766 4.22822 10.4766 3.4126C10.4766 2.59697 11.1375 1.93604 11.9531 1.93604C12.7688 1.93604 13.4297 2.59697 13.4297 3.4126C13.4297 4.22822 12.7688 4.88916 11.9531 4.88916Z" fill="#24E520"/>
<path d="M20.6578 4.98291C18.9656 4.98291 17.5641 6.24385 17.3391 7.8751H16.4062C15.6984 7.8751 15.1359 8.19854 14.8219 8.77979C14.5641 9.2626 14.5312 9.82979 14.5312 10.2188V23.0626C14.5312 23.5782 14.9531 24.0001 15.4688 24.0001C15.9844 24.0001 16.4062 23.5782 16.4062 23.0626V10.2188C16.4062 9.97041 16.425 9.82979 16.4437 9.7501H17.625C18.1594 10.8938 19.3172 11.686 20.6625 11.686C22.5094 11.686 24.0141 10.1813 24.0141 8.33447C24.0141 6.4876 22.5047 4.98291 20.6578 4.98291ZM20.6578 9.81104C19.8422 9.81104 19.1813 9.1501 19.1813 8.33447C19.1813 7.51885 19.8422 6.85791 20.6578 6.85791C21.4734 6.85791 22.1344 7.51885 22.1344 8.33447C22.1344 9.1501 21.4734 9.81104 20.6578 9.81104Z" fill="#24E520"/>
<path d="M7.03124 7.8751H6.63281C6.40781 6.24385 5.00624 4.98291 3.31406 4.98291C1.46718 4.98291 -0.0375061 6.4876 -0.0375061 8.33447C-0.0375061 10.1813 1.46718 11.686 3.31406 11.686C4.65468 11.686 5.81718 10.8938 6.35156 9.7501H7.03124C7.28906 9.7501 7.49999 9.96104 7.49999 10.2188V23.0626C7.49999 23.5782 7.92187 24.0001 8.43749 24.0001C8.95312 24.0001 9.37499 23.5782 9.37499 23.0626V10.2188C9.37499 8.9251 8.32499 7.8751 7.03124 7.8751ZM3.31406 9.81104C2.49843 9.81104 1.83749 9.1501 1.83749 8.33447C1.83749 7.51885 2.49843 6.85791 3.31406 6.85791C4.12968 6.85791 4.79062 7.51885 4.79062 8.33447C4.79062 9.1501 4.12968 9.81104 3.31406 9.81104Z" fill="#24E520"/>
</g>
<defs>
<clipPath id="clip0_2052_1023">
<rect width="24" height="24" fill="white"/>
</clipPath>
</defs>
</svg>
