<svg width="24" height="25" viewBox="0 0 24 25" fill="none" xmlns="http://www.w3.org/2000/svg">
<path fill-rule="evenodd" clip-rule="evenodd" d="M21.6 10.0399C21.6 9.72166 21.4736 9.41643 21.2485 9.19139C21.0235 8.96635 20.7183 8.83992 20.4 8.83992H8.03041C7.71215 8.83992 7.40692 8.96635 7.18188 9.19139C6.95683 9.41643 6.83041 9.72166 6.83041 10.0399C6.83041 10.3582 6.95683 10.6634 7.18188 10.8884C7.40692 11.1135 7.71215 11.2399 8.03041 11.2399H20.4C20.7183 11.2399 21.0235 11.1135 21.2485 10.8884C21.4736 10.6634 21.6 10.3582 21.6 10.0399ZM21.6 5.23992C21.6 4.92166 21.4736 4.61643 21.2485 4.39139C21.0235 4.16635 20.7183 4.03992 20.4 4.03992H3.60001C3.28175 4.03992 2.97652 4.16635 2.75148 4.39139C2.52643 4.61643 2.40001 4.92166 2.40001 5.23992C2.40001 5.55818 2.52643 5.8634 2.75148 6.08844C2.97652 6.31349 3.28175 6.43992 3.60001 6.43992H20.4C20.7183 6.43992 21.0235 6.31349 21.2485 6.08844C21.4736 5.8634 21.6 5.55818 21.6 5.23992ZM21.6 14.8399C21.6 14.5217 21.4736 14.2164 21.2485 13.9914C21.0235 13.7663 20.7183 13.6399 20.4 13.6399H3.60001C3.28175 13.6399 2.97652 13.7663 2.75148 13.9914C2.52643 14.2164 2.40001 14.5217 2.40001 14.8399C2.40001 15.1582 2.52643 15.4634 2.75148 15.6884C2.97652 15.9135 3.28175 16.0399 3.60001 16.0399H20.4C20.7183 16.0399 21.0235 15.9135 21.2485 15.6884C21.4736 15.4634 21.6 15.1582 21.6 14.8399ZM21.6 19.6399C21.6 19.3217 21.4736 19.0164 21.2485 18.7914C21.0235 18.5663 20.7183 18.4399 20.4 18.4399H8.03041C7.71215 18.4399 7.40692 18.5663 7.18188 18.7914C6.95683 19.0164 6.83041 19.3217 6.83041 19.6399C6.83041 19.9582 6.95683 20.2634 7.18188 20.4884C7.40692 20.7135 7.71215 20.8399 8.03041 20.8399H20.4C20.7183 20.8399 21.0235 20.7135 21.2485 20.4884C21.4736 20.2634 21.6 19.9582 21.6 19.6399Z" fill="#212121"/>
</svg>
